<?xml version="1.0" encoding="utf-8"?>
<!-- Generator: Adobe Illustrator 18.1.0, SVG Export Plug-In . SVG Version: 6.00 Build 0)  -->
<svg version="1.1" id="laptop" xmlns="http://www.w3.org/2000/svg" xmlns:xlink="http://www.w3.org/1999/xlink" x="0px" y="0px"
	 viewBox="180 98.6 612 580.5" enable-background="new 180 98.6 612 580.5" xml:space="preserve">
<g>
	<path fill="none" stroke="#020202" stroke-width="3" stroke-miterlimit="10" d="M712.6,144.8c0-17.6-14.4-32-32-32H291.9
		c-17.6,0-32,14.4-32,32v223.5c0,17.6,14.4,32,32,32h388.7c17.6,0,32-14.4,32-32V144.8z"/>
</g>
<g>
	<path fill="none" stroke="#020202" stroke-width="3" stroke-miterlimit="10" d="M717.5,431.7c-4.1-17.1-21.9-31.1-39.5-31.1H294.4
		c-17.6,0-35.4,14-39.5,31.1l-49.4,205.7c-4.1,17.1,6.9,31.1,24.5,31.1h512.4c17.6,0,28.6-14,24.5-31.1L717.5,431.7z"/>
</g>
<g>
	<path fill="none" stroke="#020202" stroke-width="3" stroke-miterlimit="10" d="M694.6,155.5c0-14.8-12.2-27-27-27H304.8
		c-14.9,0-27,12.2-27,27v202.1c0,14.9,12.1,27,27,27h362.8c14.8,0,27-12.1,27-27V155.5z"/>
</g>
<polygon fill="none" stroke="#020202" stroke-width="3" stroke-miterlimit="10" points="662.5,418.7 310,418.7 312.4,400.6 
	660,400.6 "/>
<g>
	<path fill="none" stroke="#020202" stroke-width="3" stroke-miterlimit="10" d="M692.5,554.4c1.3,5.9-2.5,10.7-8.6,10.7H288.5
		c-6.1,0-10-4.8-8.7-10.8l23.7-112.5c1.2-5.9,7.2-10.8,13.3-10.8h337.2c6,0,12.1,4.8,13.4,10.7L692.5,554.4z"/>
</g>
<g>
	<path fill="none" stroke="#020202" stroke-width="3" stroke-miterlimit="10" d="M546.3,623.7c0.5,6-4,11-10,11H436.1
		c-6,0-10.6-4.9-10.1-11l2.9-36.8c0.5-6,5.8-11,11.9-11h90.4c6,0,11.4,4.9,12,11L546.3,623.7z"/>
</g>
<g>
	<g>
		<g>
			<g>
				<path fill="none" stroke="#020202" stroke-width="3" stroke-miterlimit="10" d="M328.5,456.1c-0.2,1.1-1.2,2-2.3,2H315
					c-1.1,0-1.9-0.9-1.7-2l1.9-11.9c0.2-1.1,1.2-2,2.3-2h11.1c1.1,0,1.9,0.9,1.7,2L328.5,456.1z"/>
			</g>
			<g>
				<path fill="none" stroke="#020202" stroke-width="3" stroke-miterlimit="10" d="M325.1,480c-0.2,1.1-1.2,2-2.3,2h-11.6
					c-1.1,0-1.9-0.9-1.7-2l1.9-11.9c0.2-1.1,1.2-2,2.3-2h11.4c1.1,0,1.9,0.9,1.7,2L325.1,480z"/>
			</g>
			<g>
				<path fill="none" stroke="#020202" stroke-width="3" stroke-miterlimit="10" d="M321.6,503.8c-0.2,1.1-1.2,2-2.3,2h-11.9
					c-1.1,0-1.9-0.9-1.7-2l1.9-11.9c0.2-1.1,1.2-2,2.3-2h11.7c1.1,0,1.9,0.9,1.7,2L321.6,503.8z"/>
			</g>
			<g>
				<path fill="none" stroke="#020202" stroke-width="3" stroke-miterlimit="10" d="M318.2,527.7c-0.2,1.1-1.2,2-2.3,2h-12.3
					c-1.1,0-1.9-0.9-1.7-2l1.9-11.9c0.2-1.1,1.2-2,2.3-2h12.1c1.1,0,1.9,0.9,1.7,2L318.2,527.7z"/>
			</g>
			<g>
				<path fill="none" stroke="#020202" stroke-width="3" stroke-miterlimit="10" d="M359,456.1c-0.1,1.1-1.1,2-2.2,2h-11.3
					c-1.1,0-1.9-0.9-1.7-2l1.5-11.9c0.1-1.1,1.2-2,2.3-2h11.1c1.1,0,1.9,0.9,1.8,2L359,456.1z"/>
			</g>
			<g>
				<path fill="none" stroke="#020202" stroke-width="3" stroke-miterlimit="10" d="M356.2,480c-0.1,1.1-1.1,2-2.2,2h-11.6
					c-1.1,0-1.9-0.9-1.7-2l1.6-11.9c0.1-1.1,1.2-2,2.3-2h11.4c1.1,0,1.9,0.9,1.8,2L356.2,480z"/>
			</g>
			<g>
				<path fill="none" stroke="#020202" stroke-width="3" stroke-miterlimit="10" d="M353.4,503.8c-0.1,1.1-1.1,2-2.2,2h-11.9
					c-1.1,0-1.9-0.9-1.7-2L339,492c0.1-1.1,1.2-2,2.3-2H353c1.1,0,1.9,0.9,1.8,2L353.4,503.8z"/>
			</g>
			<g>
				<path fill="none" stroke="#020202" stroke-width="3" stroke-miterlimit="10" d="M350.6,527.7c-0.1,1.1-1.1,2-2.2,2h-12.3
					c-1.1,0-1.9-0.9-1.7-2l1.6-11.9c0.1-1.1,1.2-2,2.3-2h12.1c1.1,0,1.9,0.9,1.8,2L350.6,527.7z"/>
			</g>
			<g>
				<path fill="none" stroke="#020202" stroke-width="3" stroke-miterlimit="10" d="M389.4,456.1c-0.1,1.1-1.1,2-2.2,2h-11.3
					c-1.1,0-1.9-0.9-1.8-2l1.2-11.9c0.1-1.1,1.1-2,2.2-2h11.1c1.1,0,1.9,0.9,1.8,2L389.4,456.1z"/>
			</g>
			<g>
				<path fill="none" stroke="#020202" stroke-width="3" stroke-miterlimit="10" d="M387.3,480c-0.1,1.1-1.1,2-2.2,2h-11.6
					c-1.1,0-1.9-0.9-1.8-2l1.2-11.9c0.1-1.1,1.1-2,2.2-2h11.4c1.1,0,1.9,0.9,1.8,2L387.3,480z"/>
			</g>
			<g>
				<path fill="none" stroke="#020202" stroke-width="3" stroke-miterlimit="10" d="M385.2,503.8c-0.1,1.1-1.1,2-2.2,2H371
					c-1.1,0-1.9-0.9-1.8-2l1.2-11.9c0.1-1.1,1.1-2,2.2-2h11.7c1.1,0,1.9,0.9,1.8,2L385.2,503.8z"/>
			</g>
			<g>
				<path fill="none" stroke="#020202" stroke-width="3" stroke-miterlimit="10" d="M383,527.7c-0.1,1.1-1.1,2-2.2,2h-12.3
					c-1.1,0-1.9-0.9-1.8-2l1.2-11.9c0.1-1.1,1.1-2,2.2-2h12.1c1.1,0,1.9,0.9,1.8,2L383,527.7z"/>
			</g>
			<g>
				<path fill="none" stroke="#020202" stroke-width="3" stroke-miterlimit="10" d="M419.8,456.1c-0.1,1.1-1,2-2.1,2h-11.3
					c-1.1,0-1.9-0.9-1.9-2l0.9-11.8c0.1-1.1,1-2,2.1-2h11.1c1.1,0,1.9,0.9,1.9,2L419.8,456.1z"/>
			</g>
			<g>
				<path fill="none" stroke="#020202" stroke-width="3" stroke-miterlimit="10" d="M418.4,480c-0.1,1.1-1,2-2.1,2h-11.6
					c-1.1,0-1.9-0.9-1.9-2l0.9-11.8c0.1-1.1,1-2,2.1-2h11.4c1.1,0,1.9,0.9,1.9,2L418.4,480z"/>
			</g>
			<g>
				<path fill="none" stroke="#020202" stroke-width="3" stroke-miterlimit="10" d="M416.9,503.8c-0.1,1.1-1,2-2.1,2h-11.9
					c-1.1,0-1.9-0.9-1.9-2l0.9-11.8c0.1-1.1,1-2,2.1-2h11.7c1.1,0,1.9,0.9,1.9,2L416.9,503.8z"/>
			</g>
			<g>
				<path fill="none" stroke="#020202" stroke-width="3" stroke-miterlimit="10" d="M415.5,527.7c-0.1,1.1-1,2-2.1,2h-12.3
					c-1.1,0-1.9-0.9-1.9-2l0.9-11.8c0.1-1.1,1-2,2.1-2h12.1c1.1,0,1.9,0.9,1.9,2L415.5,527.7z"/>
			</g>
			<g>
				<path fill="none" stroke="#020202" stroke-width="3" stroke-miterlimit="10" d="M448.8,456.1c0,1.1-1,2-2.1,2h-11.3
					c-1.1,0-2-0.9-1.9-2l0.6-11.8c0.1-1.1,1-2,2.1-2h11.1c1.1,0,2,0.9,1.9,2L448.8,456.1z"/>
			</g>
			<g>
				<path fill="none" stroke="#020202" stroke-width="3" stroke-miterlimit="10" d="M447.9,480c0,1.1-1,2-2.1,2h-11.6
					c-1.1,0-2-0.9-1.9-2l0.6-11.8c0.1-1.1,1-2,2.1-2h11.4c1.1,0,2,0.9,1.9,2L447.9,480z"/>
			</g>
			<g>
				<path fill="none" stroke="#020202" stroke-width="3" stroke-miterlimit="10" d="M447.1,503.8c0,1.1-1,2-2.1,2h-11.9
					c-1.1,0-2-0.9-1.9-2l0.6-11.8c0.1-1.1,1-2,2.1-2h11.7c1.1,0,2,0.9,1.9,2L447.1,503.8z"/>
			</g>
			<g>
				<path fill="none" stroke="#020202" stroke-width="3" stroke-miterlimit="10" d="M446.3,527.7c0,1.1-1,2-2.1,2H432
					c-1.1,0-2-0.9-1.9-2l0.6-11.8c0.1-1.1,1-2,2.1-2h12.1c1.1,0,2,0.9,1.9,2L446.3,527.7z"/>
			</g>
			<g>
				<path fill="none" stroke="#020202" stroke-width="3" stroke-miterlimit="10" d="M478.8,456.1c0,1.1-0.9,2-2,2h-11.3
					c-1.1,0-2-0.9-2-2l0.2-11.8c0-1.1,0.9-2,2-2h11.1c1.1,0,2,0.9,2,2L478.8,456.1z"/>
			</g>
			<g>
				<path fill="none" stroke="#020202" stroke-width="3" stroke-miterlimit="10" d="M478.7,480c0,1.1-0.9,2-2,2H465
					c-1.1,0-2-0.9-2-2l0.2-11.8c0-1.1,0.9-2,2-2h11.4c1.1,0,2,0.9,2,2L478.7,480z"/>
			</g>
			<g>
				<path fill="none" stroke="#020202" stroke-width="3" stroke-miterlimit="10" d="M478.5,503.8c0,1.1-0.9,2-2,2h-11.9
					c-1.1,0-2-0.9-2-2l0.2-11.8c0-1.1,0.9-2,2-2h11.7c1.1,0,2,0.9,2,2L478.5,503.8z"/>
			</g>
			<g>
				<path fill="none" stroke="#020202" stroke-width="3" stroke-miterlimit="10" d="M478.3,527.7c0,1.1-0.9,2-2,2H464
					c-1.1,0-2-0.9-2-2l0.2-11.8c0-1.1,0.9-2,2-2h12.1c1.1,0,2,0.9,2,2L478.3,527.7z"/>
			</g>
			<g>
				<path fill="none" stroke="#020202" stroke-width="3" stroke-miterlimit="10" d="M508.9,456.1c0,1.1-0.9,2-2,2h-11.3
					c-1.1,0-2-0.9-2-2l-0.1-11.8c0-1.1,0.9-2,2-2h11.1c1.1,0,2,0.9,2,2L508.9,456.1z"/>
			</g>
			<g>
				<path fill="none" stroke="#020202" stroke-width="3" stroke-miterlimit="10" d="M509.4,480c0,1.1-0.9,2-2,2h-11.6
					c-1.1,0-2-0.9-2-2l-0.1-11.8c0-1.1,0.9-2,2-2h11.4c1.1,0,2,0.9,2,2L509.4,480z"/>
			</g>
			<g>
				<path fill="none" stroke="#020202" stroke-width="3" stroke-miterlimit="10" d="M509.9,503.8c0,1.1-0.9,2-2,2H496
					c-1.1,0-2-0.9-2-2l-0.1-11.8c0-1.1,0.9-2,2-2h11.7c1.1,0,2,0.9,2,2L509.9,503.8z"/>
			</g>
			<g>
				<path fill="none" stroke="#020202" stroke-width="3" stroke-miterlimit="10" d="M510.4,527.7c0,1.1-0.9,2-2,2h-12.3
					c-1.1,0-2-0.9-2-2l-0.1-11.8c0-1.1,0.9-2,2-2h12.1c1.1,0,2,0.9,2,2L510.4,527.7z"/>
			</g>
			<g>
				<path fill="none" stroke="#020202" stroke-width="3" stroke-miterlimit="10" d="M538.9,456.1c0.1,1.1-0.8,2-1.9,2h-11.3
					c-1.1,0-2-0.9-2.1-2l-0.4-11.8c0-1.1,0.8-2,1.9-2h11.1c1.1,0,2,0.9,2.1,2L538.9,456.1z"/>
			</g>
			<g>
				<path fill="none" stroke="#020202" stroke-width="3" stroke-miterlimit="10" d="M540.1,480c0.1,1.1-0.8,2-1.9,2h-11.6
					c-1.1,0-2-0.9-2.1-2l-0.4-11.8c0-1.1,0.8-2,1.9-2h11.4c1.1,0,2,0.9,2.1,2L540.1,480z"/>
			</g>
			<g>
				<path fill="none" stroke="#020202" stroke-width="3" stroke-miterlimit="10" d="M541.2,503.8c0.1,1.1-0.8,2-1.9,2h-11.9
					c-1.1,0-2-0.9-2.1-2l-0.4-11.8c0-1.1,0.8-2,1.9-2h11.7c1.1,0,2,0.9,2.1,2L541.2,503.8z"/>
			</g>
			<g>
				<path fill="none" stroke="#020202" stroke-width="3" stroke-miterlimit="10" d="M542.4,527.7c0.1,1.1-0.8,2-1.9,2h-12.3
					c-1.1,0-2-0.9-2.1-2l-0.4-11.8c0-1.1,0.8-2,1.9-2h12.1c1.1,0,2,0.9,2.1,2L542.4,527.7z"/>
			</g>
			<g>
				<path fill="none" stroke="#020202" stroke-width="3" stroke-miterlimit="10" d="M569,456.1c0.1,1.1-0.7,2-1.8,2h-11.3
					c-1.1,0-2.1-0.9-2.1-2l-0.7-11.8c-0.1-1.1,0.8-2,1.9-2h11.1c1.1,0,2.1,0.9,2.2,2L569,456.1z"/>
			</g>
			<g>
				<path fill="none" stroke="#020202" stroke-width="3" stroke-miterlimit="10" d="M570.8,480c0.1,1.1-0.7,2-1.8,2h-11.6
					c-1.1,0-2.1-0.9-2.1-2l-0.7-11.8c-0.1-1.1,0.8-2,1.9-2h11.4c1.1,0,2.1,0.9,2.2,2L570.8,480z"/>
			</g>
			<g>
				<path fill="none" stroke="#020202" stroke-width="3" stroke-miterlimit="10" d="M572.6,503.8c0.1,1.1-0.7,2-1.8,2h-11.9
					c-1.1,0-2.1-0.9-2.1-2L556,492c-0.1-1.1,0.8-2,1.9-2h11.7c1.1,0,2.1,0.9,2.2,2L572.6,503.8z"/>
			</g>
			<g>
				<path fill="none" stroke="#020202" stroke-width="3" stroke-miterlimit="10" d="M574.4,527.7c0.1,1.1-0.7,2-1.8,2h-12.3
					c-1.1,0-2.1-0.9-2.1-2l-0.7-11.8c-0.1-1.1,0.8-2,1.9-2h12.1c1.1,0,2.1,0.9,2.2,2L574.4,527.7z"/>
			</g>
			<g>
				<path fill="none" stroke="#020202" stroke-width="3" stroke-miterlimit="10" d="M599.1,456.1c0.1,1.1-0.7,2-1.8,2H586
					c-1.1,0-2.1-0.9-2.2-2l-1.1-11.8c-0.1-1.1,0.7-2,1.8-2h11.1c1.1,0,2.1,0.9,2.2,2L599.1,456.1z"/>
			</g>
			<g>
				<path fill="none" stroke="#020202" stroke-width="3" stroke-miterlimit="10" d="M601.5,480c0.1,1.1-0.7,2-1.8,2h-11.6
					c-1.1,0-2.1-0.9-2.2-2l-1.1-11.8c-0.1-1.1,0.7-2,1.8-2h11.4c1.1,0,2.1,0.9,2.2,2L601.5,480z"/>
			</g>
			<g>
				<path fill="none" stroke="#020202" stroke-width="3" stroke-miterlimit="10" d="M604,503.8c0.1,1.1-0.7,2-1.8,2h-11.9
					c-1.1,0-2.1-0.9-2.2-2L587,492c-0.1-1.1,0.7-2,1.8-2h11.7c1.1,0,2.1,0.9,2.2,2L604,503.8z"/>
			</g>
			<g>
				<path fill="none" stroke="#020202" stroke-width="3" stroke-miterlimit="10" d="M606.5,527.7c0.1,1.1-0.7,2-1.8,2h-12.3
					c-1.1,0-2.1-0.9-2.2-2l-1.1-11.8c-0.1-1.1,0.7-2,1.8-2H603c1.1,0,2.1,0.9,2.2,2L606.5,527.7z"/>
			</g>
			<g>
				<path fill="none" stroke="#020202" stroke-width="3" stroke-miterlimit="10" d="M629.1,456.1c0.1,1.1-0.6,2-1.7,2h-11.3
					c-1.1,0-2.1-0.9-2.2-2l-1.4-11.9c-0.1-1.1,0.7-2,1.8-2h11.1c1.1,0,2.1,0.9,2.3,2L629.1,456.1z"/>
			</g>
			<g>
				<path fill="none" stroke="#020202" stroke-width="3" stroke-miterlimit="10" d="M632.2,480c0.1,1.1-0.6,2-1.7,2h-11.6
					c-1.1,0-2.1-0.9-2.2-2l-1.4-11.9c-0.1-1.1,0.7-2,1.8-2h11.4c1.1,0,2.1,0.9,2.3,2L632.2,480z"/>
			</g>
			<g>
				<path fill="none" stroke="#020202" stroke-width="3" stroke-miterlimit="10" d="M635.4,503.8c0.1,1.1-0.6,2-1.7,2h-11.9
					c-1.1,0-2.1-0.9-2.2-2l-1.4-11.9c-0.1-1.1,0.7-2,1.8-2h11.7c1.1,0,2.1,0.9,2.3,2L635.4,503.8z"/>
			</g>
			<g>
				<path fill="none" stroke="#020202" stroke-width="3" stroke-miterlimit="10" d="M638.5,527.7c0.1,1.1-0.6,2-1.7,2h-12.3
					c-1.1,0-2.1-0.9-2.2-2l-1.4-11.9c-0.1-1.1,0.7-2,1.8-2h12.1c1.1,0,2.1,0.9,2.3,2L638.5,527.7z"/>
			</g>
			<g>
				<path fill="none" stroke="#020202" stroke-width="3" stroke-miterlimit="10" d="M659.2,456.1c0.2,1.1-0.6,2-1.7,2h-11.3
					c-1.1,0-2.1-0.9-2.3-2l-1.7-11.9c-0.2-1.1,0.6-2,1.7-2H655c1.1,0,2.1,0.9,2.3,2L659.2,456.1z"/>
			</g>
			<g>
				<path fill="none" stroke="#020202" stroke-width="3" stroke-miterlimit="10" d="M663,480c0.2,1.1-0.6,2-1.7,2h-11.6
					c-1.1,0-2.1-0.9-2.3-2l-1.7-11.9c-0.2-1.1,0.6-2,1.7-2h11.4c1.1,0,2.1,0.9,2.3,2L663,480z"/>
			</g>
			<g>
				<path fill="none" stroke="#020202" stroke-width="3" stroke-miterlimit="10" d="M666.7,503.8c0.2,1.1-0.6,2-1.7,2h-11.9
					c-1.1,0-2.1-0.9-2.3-2l-1.7-11.9c-0.2-1.1,0.6-2,1.7-2h11.7c1.1,0,2.1,0.9,2.3,2L666.7,503.8z"/>
			</g>
			<g>
				<path fill="none" stroke="#020202" stroke-width="3" stroke-miterlimit="10" d="M670.5,527.7c0.2,1.1-0.6,2-1.7,2h-12.3
					c-1.1,0-2.1-0.9-2.3-2l-1.7-11.9c-0.2-1.1,0.6-2,1.7-2h12.1c1.1,0,2.1,0.9,2.3,2L670.5,527.7z"/>
			</g>
			<g>
				<path fill="none" stroke="#000000" stroke-width="3" stroke-miterlimit="10" d="M314.7,551.5c-0.2,1.1-1.2,2-2.3,2h-12.6
					c-1.1,0-1.9-0.9-1.7-2l1.9-11.9c0.2-1.1,1.2-2,2.3-2h12.4c1.1,0,1.9,0.9,1.7,2L314.7,551.5z"/>
			</g>
			<g>
				<path fill="none" stroke="#000000" stroke-width="3" stroke-miterlimit="10" d="M347.8,551.5c-0.1,1.1-1.1,2-2.2,2H333
					c-1.1,0-1.9-0.9-1.7-2l1.6-11.9c0.1-1.1,1.2-2,2.3-2h12.4c1.1,0,1.9,0.9,1.8,2L347.8,551.5z"/>
			</g>
			<g>
				<path fill="none" stroke="#000000" stroke-width="3" stroke-miterlimit="10" d="M380.9,551.5c-0.1,1.1-1.1,2-2.2,2h-12.6
					c-1.1,0-1.9-0.9-1.8-2l1.2-11.9c0.1-1.1,1.1-2,2.2-2h12.4c1.1,0,1.9,0.9,1.8,2L380.9,551.5z"/>
			</g>
			<g>
				<path fill="none" stroke="#000000" stroke-width="3" stroke-miterlimit="10" d="M414,551.5c-0.1,1.1-1,2-2.1,2h-12.6
					c-1.1,0-1.9-0.9-1.9-2l0.9-11.8c0.1-1.1,1-2,2.1-2h12.4c1.1,0,1.9,0.9,1.9,2L414,551.5z"/>
			</g>
			<g>
				<path fill="none" stroke="#000000" stroke-width="3" stroke-miterlimit="10" d="M576.2,551.5c0.1,1.1-0.7,2-1.8,2h-12.6
					c-1.1,0-2.1-0.9-2.1-2l-0.7-11.8c-0.1-1.1,0.8-2,1.9-2h12.4c1.1,0,2.1,0.9,2.2,2L576.2,551.5z"/>
			</g>
			<g>
				<path fill="none" stroke="#000000" stroke-width="3" stroke-miterlimit="10" d="M608.9,551.5c0.1,1.1-0.7,2-1.8,2h-12.6
					c-1.1,0-2.1-0.9-2.2-2l-1.1-11.8c-0.1-1.1,0.7-2,1.8-2h12.4c1.1,0,2.1,0.9,2.2,2L608.9,551.5z"/>
			</g>
			<g>
				<path fill="none" stroke="#000000" stroke-width="3" stroke-miterlimit="10" d="M641.6,551.5c0.1,1.1-0.6,2-1.7,2h-12.6
					c-1.1,0-2.1-0.9-2.2-2l-1.4-11.9c-0.1-1.1,0.7-2,1.8-2h12.4c1.1,0,2.1,0.9,2.3,2L641.6,551.5z"/>
			</g>
			<g>
				<path fill="none" stroke="#000000" stroke-width="3" stroke-miterlimit="10" d="M674.3,551.5c0.2,1.1-0.6,2-1.7,2H660
					c-1.1,0-2.1-0.9-2.3-2l-1.7-11.9c-0.2-1.1,0.6-2,1.7-2h12.4c1.1,0,2.1,0.9,2.3,2L674.3,551.5z"/>
			</g>
			<g>
				<path fill="none" stroke="#000000" stroke-width="3" stroke-miterlimit="10" d="M543.5,551.5c0.1,1.1-0.8,2-1.9,2H430.8
					c-1.1,0-2-0.9-1.9-2l0.6-11.8c0.1-1.1,1-2,2.1-2h109.3c1.1,0,2,0.9,2.1,2L543.5,551.5z"/>
			</g>
		</g>
	</g>
</g>
<g>
	<rect x="358.4" y="172.7" fill="none" stroke="#020202" stroke-width="3" stroke-miterlimit="10" width="255.6" height="185.5"/>
	<rect x="358.4" y="158" fill="none" stroke="#020202" stroke-width="3" stroke-miterlimit="10" width="255.6" height="14.7"/>
	<circle fill="none" stroke="#020202" stroke-width="3" stroke-miterlimit="10" cx="367.4" cy="165.3" r="2.8"/>
	<circle fill="none" stroke="#020202" stroke-width="3" stroke-miterlimit="10" cx="377.1" cy="165.3" r="2.8"/>
	<circle fill="none" stroke="#020202" stroke-width="3" stroke-miterlimit="10" cx="386.7" cy="165.3" r="2.8"/>
	<g>
		<line fill="none" stroke="#020202" stroke-width="3" stroke-miterlimit="10" x1="377.6" y1="235.5" x2="431.1" y2="235.5"/>
		<line fill="none" stroke="#020202" stroke-width="3" stroke-miterlimit="10" x1="377.6" y1="307" x2="421.1" y2="307"/>
		<g>
			<line fill="none" stroke="#020202" stroke-width="3" stroke-miterlimit="10" x1="377.6" y1="255.5" x2="543.9" y2="255.5"/>
			<line fill="none" stroke="#020202" stroke-width="3" stroke-miterlimit="10" x1="377.6" y1="266.8" x2="533.9" y2="266.8"/>
			<line fill="none" stroke="#020202" stroke-width="3" stroke-miterlimit="10" x1="377.6" y1="278.1" x2="540.9" y2="278.1"/>
			<line fill="none" stroke="#020202" stroke-width="3" stroke-miterlimit="10" x1="377.6" y1="289.5" x2="533.9" y2="289.5"/>
		</g>
	</g>
	<g>
		<rect x="404.6" y="198.3" fill="none" stroke="#020202" stroke-width="2" stroke-miterlimit="10" width="182.3" height="7"/>
		<rect x="404.6" y="185" fill="none" stroke="#020202" stroke-width="2" stroke-miterlimit="10" width="182.3" height="7"/>
	</g>
	<line fill="none" stroke="#020202" stroke-width="2" stroke-miterlimit="10" x1="358.4" y1="217.5" x2="614" y2="217.5"/>
	<path fill="#020202" d="M583.3,194.4"/>
	<g>
		<g>
			<polygon fill="none" stroke="#020202" stroke-miterlimit="10" points="374.6,194.3 385.3,191.3 383.1,199.8 382.2,200.5 
				380.4,196.7 380.4,196.7 379.1,198.4 378.6,198.2 379,196.3 374.6,195.2 			"/>
			<polygon fill="#020202" points="378.6,198.2 379,196.3 385.3,191.3 380.4,196.7 			"/>
		</g>
		<path fill="none" stroke="#020202" stroke-width="2" stroke-miterlimit="10" d="M396.3,202.7c0,1.5-1.2,2.7-2.6,2.7h-25.6
			c-1.4,0-2.6-1.2-2.6-2.7V187c0-1.5,1.2-2.7,2.6-2.7h25.6c1.4,0,2.6,1.2,2.6,2.7V202.7z"/>
	</g>
</g>
</svg>
