<?xml version="1.0" encoding="utf-8"?>
<!-- Generator: Adobe Illustrator 18.1.0, SVG Export Plug-In . SVG Version: 6.00 Build 0)  -->
<svg version="1.1" id="mailboxes" xmlns="http://www.w3.org/2000/svg" xmlns:xlink="http://www.w3.org/1999/xlink" x="0px" y="0px"
	 viewBox="0 0 261.4 261" enable-background="new 0 0 261.4 261" xml:space="preserve">
<g>
	<g>
		<g>
			<polyline fill="none" stroke="#000000" stroke-width="2" stroke-miterlimit="10" points="28.1,103.8 28.1,124.9 22.8,124.9 
				22.8,103.8 			"/>
			<polyline fill="none" stroke="#000000" stroke-width="2" stroke-miterlimit="10" points="31.8,103.8 31.8,124.9 28.1,124.9 			
				"/>
		</g>
		<polygon fill="none" stroke="#000000" stroke-width="2" stroke-miterlimit="10" points="31,70.6 27.5,70.6 24.3,70.6 24.3,87.6 
			27.5,87.6 27.5,74.3 31,74.3 		"/>
		<path fill="none" stroke="#000000" stroke-width="2" stroke-miterlimit="10" d="M23.9,79.3c0,0-5.2,0-8.4,0
			c-5.6,0-10.2,4.6-10.2,10.2c0,2.8,0,14.3,0,14.3h8.7v0h20.3"/>
		<line fill="none" stroke="#000000" stroke-width="2" stroke-miterlimit="10" x1="43.2" y1="79.4" x2="27.9" y2="79.3"/>
		<path fill="none" stroke="#000000" stroke-width="2" stroke-miterlimit="10" d="M55.2,89.5c0,2.9,0,14.3,0,14.3H34.7
			c0,0,0-11.5,0-14.3c0-5.6,4.6-10.2,10.2-10.2S55.2,83.8,55.2,89.5z"/>
		<line fill="none" stroke="#000000" stroke-width="2" stroke-miterlimit="10" x1="42.1" y1="90.9" x2="47.8" y2="90.9"/>
	</g>
	<g>
		<g>
			<polyline fill="none" stroke="#000000" stroke-width="2" stroke-miterlimit="10" points="225.7,168.2 225.7,198 233.2,198 
				233.2,168.2 			"/>
			<polyline fill="none" stroke="#000000" stroke-width="2" stroke-miterlimit="10" points="220.5,168.2 220.5,198 225.6,198 			"/>
		</g>
		<polygon fill="none" stroke="#000000" stroke-width="2" stroke-miterlimit="10" points="221.6,121.5 226.5,121.5 230.1,121.5 
			230.1,145.5 226.5,145.5 226.5,126.7 221.6,126.7 		"/>
		<path fill="none" stroke="#000000" stroke-width="2" stroke-miterlimit="10" d="M230.7,133.7c0,0,8.3-0.1,12.9-0.1
			c8,0,14.4,6.5,14.4,14.4c0,4,0,20.2,0,20.2h-12.3v0h-28.6"/>
		<line fill="none" stroke="#000000" stroke-width="2" stroke-miterlimit="10" x1="204.4" y1="133.9" x2="226" y2="133.7"/>
		<path fill="none" stroke="#000000" stroke-width="2" stroke-miterlimit="10" d="M187.5,148.1c0,4.1,0,20.2,0,20.2h28.9
			c0,0,0-16.2,0-20.2c0-8-6.5-14.4-14.4-14.4C194,133.7,187.5,140.1,187.5,148.1z"/>
		<line fill="none" stroke="#000000" stroke-width="2" stroke-miterlimit="10" x1="206" y1="150.1" x2="197.9" y2="150.1"/>
	</g>
</g>
<g>
	<g>
		<path fill="none" stroke="#000000" stroke-width="2" stroke-miterlimit="10" d="M91.7,69.1c0,9.2-16.6,28.6-16.6,28.6
			S58.4,78.3,58.4,69.1s7.4-16.6,16.6-16.6S91.7,59.9,91.7,69.1z"/>
		<circle fill="none" stroke="#000000" stroke-width="2" stroke-miterlimit="10" cx="75.1" cy="69.2" r="4"/>
	</g>
	<g>
		<path fill="none" stroke="#000000" stroke-width="2" stroke-miterlimit="10" d="M199.7,99.4c0,14-25.3,43.6-25.3,43.6
			S149,113.4,149,99.4s11.3-25.3,25.3-25.3S199.7,85.4,199.7,99.4z"/>
		<circle fill="none" stroke="#000000" stroke-width="2" stroke-miterlimit="10" cx="174.4" cy="99.6" r="6.1"/>
	</g>
	<g>
		<g>
			<path fill="none" stroke="#000000" stroke-width="2" stroke-miterlimit="10" d="M70.6,103.6c-1.1,0.8-2.3,2-3.6,3.5"/>
			<path fill="none" stroke="#000000" stroke-width="2" stroke-miterlimit="10" stroke-dasharray="10.1977,3.0593" d="M65.2,109.5
				c-3.1,4.6-5.2,10.4-1.8,13.9c8,8.4,26.6-8.9,37.3-1.9c8.6,5.5,6.8,17,5.4,25.5c-1.7,10.4,3.3,18.9,15,19.6
				c16.7,0.9,28.8-4.9,43.1-16"/>
			<path fill="none" stroke="#000000" stroke-width="2" stroke-miterlimit="10" d="M165.4,149.7c1.3-1,2.6-2.1,3.9-3.1"/>
		</g>
	</g>
</g>
</svg>
