<?xml version="1.0" encoding="utf-8"?>
<!-- Generator: Adobe Illustrator 18.1.0, SVG Export Plug-In . SVG Version: 6.00 Build 0)  -->
<svg version="1.1" id="postage" xmlns="http://www.w3.org/2000/svg" xmlns:xlink="http://www.w3.org/1999/xlink" x="0px" y="0px"
	 viewBox="-89.4 88.3 792 612" enable-background="new -89.4 88.3 792 612" xml:space="preserve">
<g>
	<g>
		<circle fill="none" stroke="#000000" stroke-width="3" stroke-miterlimit="10" cx="366.2" cy="265.3" r="54.8"/>
		<g>
			<path fill="none" stroke="#000000" stroke-width="3" stroke-miterlimit="10" d="M359.4,249.1c0,0,21.5-7.8,45.1-7.8
				c23.6,0,28.9,10.9,52.9,10.9c24,0,31.7-10.9,54.5-10.9c22.7,0,35.2,10.9,57.6,10.9c22.4,0,33-10.9,52-10.9s42.9,5.9,42.9,5.9"/>
			<path fill="none" stroke="#000000" stroke-width="3" stroke-miterlimit="10" d="M359.4,273.7c0,0,21.5-7.8,45.1-7.8
				c23.6,0,28.9,10.9,52.9,10.9c24,0,31.7-10.9,54.5-10.9c22.7,0,35.2,10.9,57.6,10.9c22.4,0,33-10.9,52-10.9s42.9,5.9,42.9,5.9"/>
			<path fill="none" stroke="#000000" stroke-width="3" stroke-miterlimit="10" d="M359.4,298.2c0,0,21.5-7.8,45.1-7.8
				c23.6,0,28.9,10.9,52.9,10.9c24,0,31.7-10.9,54.5-10.9c22.7,0,35.2,10.9,57.6,10.9c22.4,0,33-10.9,52-10.9s42.9,5.9,42.9,5.9"/>
		</g>
	</g>
	<rect x="-49.2" y="157.9" fill="none" stroke="#000000" stroke-width="3" stroke-miterlimit="10" width="715.4" height="473"/>
	<rect x="501.3" y="212" fill="none" stroke="#000000" stroke-width="3" stroke-miterlimit="10" width="106.7" height="106.7"/>
</g>
</svg>
