<?xml version="1.0" encoding="utf-8"?>
<!-- Generator: Adobe Illustrator 18.1.0, SVG Export Plug-In . SVG Version: 6.00 Build 0)  -->
<svg version="1.1" id="postage" xmlns="http://www.w3.org/2000/svg" xmlns:xlink="http://www.w3.org/1999/xlink" x="0px" y="0px"
	 viewBox="0 0 261.4 261" enable-background="new 0 0 261.4 261" xml:space="preserve">
<g>
	<g>
		<circle fill="none" stroke="#000000" stroke-width="2" stroke-miterlimit="10" cx="149.3" cy="89" r="17.6"/>
		<g>
			<path fill="none" stroke="#000000" stroke-width="2" stroke-miterlimit="10" d="M147.1,83.8c0,0,6.9-2.5,14.5-2.5s9.3,3.5,17,3.5
				c7.7,0,10.2-3.5,17.5-3.5s11.3,3.5,18.5,3.5s10.6-3.5,16.7-3.5s13.8,1.9,13.8,1.9"/>
			<path fill="none" stroke="#000000" stroke-width="2" stroke-miterlimit="10" d="M147.1,91.7c0,0,6.9-2.5,14.5-2.5s9.3,3.5,17,3.5
				c7.7,0,10.2-3.5,17.5-3.5s11.3,3.5,18.5,3.5s10.6-3.5,16.7-3.5s13.8,1.9,13.8,1.9"/>
			<path fill="none" stroke="#000000" stroke-width="2" stroke-miterlimit="10" d="M147.1,99.6c0,0,6.9-2.5,14.5-2.5s9.3,3.5,17,3.5
				c7.7,0,10.2-3.5,17.5-3.5s11.3,3.5,18.5,3.5s10.6-3.5,16.7-3.5s13.8,1.9,13.8,1.9"/>
		</g>
	</g>
	<rect x="15.8" y="54.5" fill="none" stroke="#000000" stroke-width="2" stroke-miterlimit="10" width="229.9" height="152"/>
	<rect x="192.7" y="71.9" fill="none" stroke="#000000" stroke-width="2" stroke-miterlimit="10" width="34.3" height="34.3"/>
</g>
</svg>
