<?xml version="1.0" encoding="utf-8"?>
<!-- Generator: Adobe Illustrator 18.1.0, SVG Export Plug-In . SVG Version: 6.00 Build 0)  -->
<svg version="1.1" id="typewriter" xmlns="http://www.w3.org/2000/svg" xmlns:xlink="http://www.w3.org/1999/xlink" x="0px" y="0px"
	 viewBox="0 100.4 612 593.7" enable-background="new 0 100.4 612 593.7" xml:space="preserve">
<image display="none" overflow="visible" enable-background="new    " width="380" height="363" xlink:href="21960F0F56C5EA89.jpeg"  transform="matrix(1.6857 0 0 1.6857 -16.3887 83.4445)">
</image>
<path fill="none" stroke="#020202" stroke-width="3" stroke-miterlimit="10" d="M78,360.6l-20.6,44c0,0,0,98.3,0,111.2
	c0,12.9-22.7,85.2-22.9,98.3c-0.2,21.1,18.3,23.4,39.8,23.4c11.7,0,422.6,0,449.5,0c26.9,0,39.3-8.9,39.3-23.4
	c0-14.5-29.3-87.1-29.3-98.3c0-11.2,0-111.2,0-111.2l-29.3-40.3"/>
<g>
	<line fill="none" stroke="#020202" stroke-width="3" stroke-miterlimit="10" x1="75.4" y1="415.4" x2="151.5" y2="415.4"/>
	<line fill="none" stroke="#020202" stroke-width="3" stroke-miterlimit="10" x1="66.5" y1="384.8" x2="159.2" y2="384.8"/>
</g>
<g>
	<line fill="none" stroke="#020202" stroke-width="3" stroke-miterlimit="10" x1="435.5" y1="415.4" x2="511.3" y2="415.4"/>
	<line fill="none" stroke="#020202" stroke-width="3" stroke-miterlimit="10" x1="426.6" y1="384.8" x2="519.3" y2="384.8"/>
</g>
<g>
	<ellipse fill="none" stroke="#020202" stroke-width="3" stroke-miterlimit="10" cx="457" cy="332.3" rx="48.2" ry="11.5"/>
	<ellipse fill="#020202" cx="457" cy="332.3" rx="10.1" ry="2.3"/>
	<path fill="none" stroke="#020202" stroke-width="3" stroke-miterlimit="10" d="M408.8,332.3V363c0,0,12.2,12.2,48.2,12.2
		s48.2-6.6,48.2-6.6v-36.3"/>
</g>
<g>
	<ellipse fill="none" stroke="#020202" stroke-width="3" stroke-miterlimit="10" cx="126.2" cy="332.3" rx="48.2" ry="11.5"/>
	<ellipse fill="#020202" cx="126.2" cy="332.3" rx="10.1" ry="2.3"/>
	<path fill="none" stroke="#020202" stroke-width="3" stroke-miterlimit="10" d="M77.7,332.3V363c0,0,12.2,12.2,48.2,12.2
		s48.2-6.6,48.2-6.6v-36.3"/>
</g>
<line fill="none" stroke="#020202" stroke-width="3" stroke-miterlimit="10" x1="174.4" y1="343.8" x2="282.8" y2="343.8"/>
<line fill="none" stroke="#020202" stroke-width="3" stroke-miterlimit="10" x1="308.3" y1="343.8" x2="408.8" y2="343.8"/>
<polyline fill="none" stroke="#020202" stroke-width="3" stroke-miterlimit="10" points="206.5,312.4 75.4,312.4 75.4,303.5 
	206.5,303.5 "/>
<line fill="none" stroke="#020202" stroke-width="3" stroke-miterlimit="10" x1="231.3" y1="303.5" x2="380.9" y2="303.5"/>
<line fill="none" stroke="#020202" stroke-width="3" stroke-miterlimit="10" x1="380.9" y1="312.4" x2="231.3" y2="312.4"/>
<polyline fill="none" stroke="#020202" stroke-width="3" stroke-miterlimit="10" points="407.4,303.5 538.5,303.5 538.5,312.4 
	407.4,312.4 "/>
<polyline fill="none" stroke="#020202" stroke-width="3" stroke-miterlimit="10" points="440.4,266.1 478.8,266.1 500.6,302.6 "/>
<polyline fill="none" stroke="#020202" stroke-width="3" stroke-miterlimit="10" points="75.2,302.6 104.9,266.1 154.1,266.1 "/>
<polyline fill="none" stroke="#020202" stroke-width="3" stroke-miterlimit="10" points="130.6,266.1 133.9,255.1 154.8,255.1 "/>
<polyline fill="none" stroke="#020202" stroke-width="3" stroke-miterlimit="10" points="462.9,266.1 459.6,255.1 440.4,255.1 "/>
<polyline fill="none" stroke="#020202" stroke-width="3" stroke-miterlimit="10" points="151.5,302.4 165.5,106.9 428.9,106.9 
	443,302.4 "/>
<g>
	<path fill="none" stroke="#020202" stroke-width="3" stroke-miterlimit="10" d="M538.5,312.4H556V289h30.9v-22.9c0,0-15.2,0-30.4,0
		c-15.2,0-18.3,9.4-18.3,16.4C538.3,289.5,538.5,312.4,538.5,312.4z"/>
	<rect x="541.3" y="312.4" fill="none" stroke="#020202" stroke-width="3" stroke-miterlimit="10" width="35.1" height="17.6"/>
	<rect x="576.6" y="300.9" fill="none" stroke="#020202" stroke-width="3" stroke-miterlimit="10" width="24.6" height="49.2"/>
</g>
<g>
	<path fill="none" stroke="#020202" stroke-width="3" stroke-miterlimit="10" d="M74.5,312.4H56.9V289H25.8v-22.9c0,0,16.2,0,30.4,0
		s18.3,6.8,18.3,15C74.5,286.9,74.5,312.4,74.5,312.4z"/>
	<rect x="36.3" y="312.4" fill="none" stroke="#020202" stroke-width="3" stroke-miterlimit="10" width="35.1" height="17.6"/>
	<rect x="11.7" y="300.9" fill="none" stroke="#020202" stroke-width="3" stroke-miterlimit="10" width="24.6" height="49.2"/>
</g>
<g>
	<polyline fill="none" stroke="#020202" stroke-width="3" stroke-miterlimit="10" points="59,330.7 59,358.8 77,358.8 	"/>
	<polyline fill="none" stroke="#020202" stroke-width="3" stroke-miterlimit="10" points="59,358.8 47.3,358.8 47.3,375.2 
		71.2,375.2 	"/>
	<polyline fill="none" stroke="#020202" stroke-width="3" stroke-miterlimit="10" points="53.8,375.2 53.8,384.8 66.3,384.8 	"/>
</g>
<polyline fill="none" stroke="#020202" stroke-width="3" stroke-miterlimit="10" points="513.2,375.2 548.8,375.2 548.8,330 "/>
<line fill="none" stroke="#020202" stroke-width="3" stroke-miterlimit="10" x1="506.9" y1="358.8" x2="548.8" y2="358.8"/>
<polyline fill="none" stroke="#020202" stroke-width="3" stroke-miterlimit="10" points="530.5,375.2 530.5,384.8 518.1,384.8 "/>
<line fill="none" stroke="#020202" stroke-width="3" stroke-miterlimit="10" x1="506.9" y1="347.5" x2="548.8" y2="347.5"/>
<line fill="none" stroke="#020202" stroke-width="3" stroke-miterlimit="10" x1="530.5" y1="312.4" x2="530.5" y2="345.9"/>
<rect x="206.5" y="292.3" fill="none" stroke="#020202" stroke-width="3" stroke-miterlimit="10" width="24.6" height="19.9"/>
<rect x="380.9" y="292.3" fill="none" stroke="#020202" stroke-width="3" stroke-miterlimit="10" width="24.6" height="19.9"/>
<path fill="none" stroke="#020202" stroke-width="3" stroke-miterlimit="10" d="M34.7,617c0,0,0,21.8,0,35.4
	c0,22.2,15.7,34.7,41,34.7s424.2,0,448.8,0c24.3,0,39.3-10.5,39.3-36.5c0-11.2-0.5-36.5-0.5-36.5"/>
<g>
	<g>
		<path fill="none" stroke="#020202" stroke-width="3" stroke-miterlimit="10" d="M360.8,364.9c-13.8,18.5-38.6,30.2-63.2,30.2
			c-25.1,0-52.9-15.2-64.9-32.3"/>
		<path fill="none" stroke="#020202" stroke-width="3" stroke-miterlimit="10" d="M247.3,360.2c7.5,7.4,23.3,21.2,49.1,21.2
			c27.6,0,44.5-16.4,49.2-21.1"/>
		<path fill="none" stroke="#020202" stroke-width="3" stroke-miterlimit="10" d="M254,357.4c8.9,7.7,22.7,17.1,42.4,17.1
			c20.1,0,34.2-9.8,42.4-16.9"/>
		<path fill="none" stroke="#020202" stroke-width="3" stroke-miterlimit="10" d="M284,341.2v-20.4h22.7v20.4l6.6,10.2l32.3,8.8
			l85,24.3c-32.8,37.9-81.2,62-135.3,62c-54.3,0-102.8-23.9-135.6-62l86.6-24.3l33-9.4L284,341.2z"/>
		<path fill="none" stroke="#020202" stroke-width="3" stroke-miterlimit="10" d="M412.8,379.4c-29,31.4-70.7,51.3-117.1,51.3
			s-88.3-19.9-117.3-51.5"/>
		<line fill="none" stroke="#020202" stroke-width="3" stroke-miterlimit="10" x1="295.7" y1="395.1" x2="295.7" y2="430.7"/>
		<line fill="none" stroke="#020202" stroke-width="3" stroke-miterlimit="10" x1="334.8" y1="386.2" x2="361.7" y2="416.1"/>
		<line fill="none" stroke="#020202" stroke-width="3" stroke-miterlimit="10" x1="256.1" y1="383.4" x2="226.9" y2="415"/>
		<line fill="none" stroke="#020202" stroke-width="3" stroke-miterlimit="10" x1="274.2" y1="391.3" x2="260.3" y2="426.7"/>
		<line fill="none" stroke="#020202" stroke-width="3" stroke-miterlimit="10" x1="317.5" y1="392.7" x2="329.4" y2="426.7"/>
		<line fill="none" stroke="#020202" stroke-width="3" stroke-miterlimit="10" x1="351.2" y1="375.2" x2="388.6" y2="400.7"/>
		<line fill="none" stroke="#020202" stroke-width="3" stroke-miterlimit="10" x1="241.4" y1="373.3" x2="200.6" y2="399"/>
		<line fill="none" stroke="#020202" stroke-width="3" stroke-miterlimit="10" x1="246.8" y1="379.1" x2="213.1" y2="407.5"/>
		<line fill="none" stroke="#020202" stroke-width="3" stroke-miterlimit="10" x1="237.4" y1="368.6" x2="188.9" y2="389.4"/>
		<line fill="none" stroke="#020202" stroke-width="3" stroke-miterlimit="10" x1="264.3" y1="387.3" x2="243" y2="421.8"/>
		<line fill="none" stroke="#020202" stroke-width="3" stroke-miterlimit="10" x1="284.2" y1="393.9" x2="278.8" y2="429.7"/>
		<line fill="none" stroke="#020202" stroke-width="3" stroke-miterlimit="10" x1="306.2" y1="394.6" x2="313.3" y2="429.7"/>
		<line fill="none" stroke="#020202" stroke-width="3" stroke-miterlimit="10" x1="326.1" y1="389.9" x2="344.6" y2="422.9"/>
		<line fill="none" stroke="#020202" stroke-width="3" stroke-miterlimit="10" x1="343.9" y1="380.8" x2="375.1" y2="408.9"/>
		<line fill="none" stroke="#020202" stroke-width="3" stroke-miterlimit="10" x1="356.6" y1="370" x2="399.9" y2="389.9"/>
	</g>
	<g>
		<rect x="293.1" y="330.7" fill="#020202" width="3.5" height="6.6"/>
		<rect x="293.1" y="343.8" fill="#020202" width="3.5" height="6.6"/>
	</g>
	<line fill="none" stroke="#020202" stroke-width="3" stroke-miterlimit="10" x1="257.1" y1="359.7" x2="335.4" y2="359.7"/>
</g>
<g>
	<path fill="none" stroke="#020202" stroke-width="3" stroke-miterlimit="10" d="M524,572.3c0.9,7.5,1.6,13.8,1.6,16.9
		c0.2,11-12.4,26.9-28.6,26.9c-10.1,0-397.5,0-408.1,0c-16.9,0-30.9-11.2-28.1-26.9c0.7-4,1.9-9.8,3-16.9"/>
	<path fill="none" stroke="#020202" stroke-width="3" stroke-miterlimit="10" d="M67.4,552.4c2.8-15.7,5.2-30,5.2-30s0-18.3,0-35.1
		c0-16.9,13.8-32.3,34.2-32.3s346.5,0,374.1,0c27.6,0,36.5,12.4,36.5,32.3s0,35.1,0,35.1s2.1,14.3,4,29.7"/>
	<g>
		<ellipse fill="none" stroke="#020202" stroke-width="3" stroke-miterlimit="10" cx="257.5" cy="558.7" rx="13.8" ry="4.2"/>
		<path fill="none" stroke="#020202" stroke-width="3" stroke-miterlimit="10" d="M244,560.1v9.6c0,0,6.3,3.7,13.8,3.7
			c7.3,0,13.8-3.7,13.8-3.7v-11"/>
		<polyline fill="none" stroke="#020202" stroke-width="3" stroke-miterlimit="10" points="251.2,573.2 251.2,584.5 257.1,584.5 
			262.9,584.5 262.9,573.2 		"/>
		<line fill="none" stroke="#020202" stroke-width="3" stroke-miterlimit="10" x1="257.1" y1="590.3" x2="257.1" y2="584.5"/>
	</g>
	<g>
		<ellipse fill="none" stroke="#020202" stroke-width="3" stroke-miterlimit="10" cx="300.6" cy="558.7" rx="13.8" ry="4.2"/>
		<path fill="none" stroke="#020202" stroke-width="3" stroke-miterlimit="10" d="M286.8,560.1v9.6c0,0,6.3,3.7,13.8,3.7
			c7.3,0,13.8-3.7,13.8-3.7v-11"/>
		<polyline fill="none" stroke="#020202" stroke-width="3" stroke-miterlimit="10" points="294.1,573.2 294.1,584.5 299.9,584.5 
			305.8,584.5 305.8,573.2 		"/>
		<line fill="none" stroke="#020202" stroke-width="3" stroke-miterlimit="10" x1="299.9" y1="590.3" x2="299.9" y2="584.5"/>
	</g>
	<g>
		<ellipse fill="none" stroke="#020202" stroke-width="3" stroke-miterlimit="10" cx="343.7" cy="558.7" rx="13.8" ry="4.2"/>
		<path fill="none" stroke="#020202" stroke-width="3" stroke-miterlimit="10" d="M329.9,560.1v9.6c0,0,6.3,3.7,13.8,3.7
			c7.5,0,13.8-3.7,13.8-3.7v-11"/>
		<polyline fill="none" stroke="#020202" stroke-width="3" stroke-miterlimit="10" points="337.1,573.2 337.1,584.5 343,584.5 
			348.8,584.5 348.8,573.2 		"/>
		<line fill="none" stroke="#020202" stroke-width="3" stroke-miterlimit="10" x1="343" y1="590.3" x2="343" y2="584.5"/>
	</g>
	<g>
		<ellipse fill="none" stroke="#020202" stroke-width="3" stroke-miterlimit="10" cx="128.5" cy="558.7" rx="13.8" ry="4.2"/>
		<path fill="none" stroke="#020202" stroke-width="3" stroke-miterlimit="10" d="M114.7,560.1v9.6c0,0,6.3,3.7,13.8,3.7
			c7.5,0,13.8-3.7,13.8-3.7v-11"/>
		<polyline fill="none" stroke="#020202" stroke-width="3" stroke-miterlimit="10" points="122,573.2 122,584.5 127.8,584.5 
			133.7,584.5 133.7,573.2 		"/>
		<line fill="none" stroke="#020202" stroke-width="3" stroke-miterlimit="10" x1="127.8" y1="590.3" x2="127.8" y2="584.5"/>
	</g>
	<g>
		<ellipse fill="none" stroke="#020202" stroke-width="3" stroke-miterlimit="10" cx="171.6" cy="558.7" rx="13.8" ry="4.2"/>
		<path fill="none" stroke="#020202" stroke-width="3" stroke-miterlimit="10" d="M157.8,560.1v9.6c0,0,6.3,3.7,13.8,3.7
			c7.3,0,13.8-3.7,13.8-3.7v-11"/>
		<polyline fill="none" stroke="#020202" stroke-width="3" stroke-miterlimit="10" points="165.1,573.2 165.1,584.5 170.9,584.5 
			176.8,584.5 176.8,573.2 		"/>
		<line fill="none" stroke="#020202" stroke-width="3" stroke-miterlimit="10" x1="170.9" y1="590.3" x2="170.9" y2="584.5"/>
	</g>
	<g>
		<ellipse fill="none" stroke="#020202" stroke-width="3" stroke-miterlimit="10" cx="214.7" cy="558.7" rx="13.8" ry="4.2"/>
		<path fill="none" stroke="#020202" stroke-width="3" stroke-miterlimit="10" d="M200.9,560.1v9.6c0,0,6.3,3.7,13.8,3.7
			c7.3,0,13.8-3.7,13.8-3.7v-11"/>
		<polyline fill="none" stroke="#020202" stroke-width="3" stroke-miterlimit="10" points="208.1,573.2 208.1,584.5 214,584.5 
			219.8,584.5 219.8,573.2 		"/>
		<line fill="none" stroke="#020202" stroke-width="3" stroke-miterlimit="10" x1="214" y1="590.3" x2="214" y2="584.5"/>
	</g>
	<g>
		<ellipse fill="none" stroke="#020202" stroke-width="3" stroke-miterlimit="10" cx="386.8" cy="558.7" rx="13.8" ry="4.2"/>
		<path fill="none" stroke="#020202" stroke-width="3" stroke-miterlimit="10" d="M373,560.1v9.6c0,0,6.3,3.7,13.8,3.7
			c7.3,0,13.8-3.7,13.8-3.7v-11"/>
		<polyline fill="none" stroke="#020202" stroke-width="3" stroke-miterlimit="10" points="380.2,573.2 380.2,584.5 386.1,584.5 
			391.9,584.5 391.9,573.2 		"/>
		<line fill="none" stroke="#020202" stroke-width="3" stroke-miterlimit="10" x1="386.1" y1="590.3" x2="386.1" y2="584.5"/>
	</g>
	<g>
		<ellipse fill="none" stroke="#020202" stroke-width="3" stroke-miterlimit="10" cx="429.9" cy="558.7" rx="13.8" ry="4.2"/>
		<path fill="none" stroke="#020202" stroke-width="3" stroke-miterlimit="10" d="M416,560.1v9.6c0,0,6.3,3.7,13.8,3.7
			c7.3,0,13.8-3.7,13.8-3.7v-11"/>
		<polyline fill="none" stroke="#020202" stroke-width="3" stroke-miterlimit="10" points="423.3,573.2 423.3,584.5 429.1,584.5 
			435,584.5 435,573.2 		"/>
		<line fill="none" stroke="#020202" stroke-width="3" stroke-miterlimit="10" x1="429.1" y1="590.3" x2="429.1" y2="584.5"/>
	</g>
	<g>
		<ellipse fill="none" stroke="#020202" stroke-width="3" stroke-miterlimit="10" cx="472.7" cy="558.7" rx="13.8" ry="4.2"/>
		<path fill="none" stroke="#020202" stroke-width="3" stroke-miterlimit="10" d="M459.1,560.1v9.6c0,0,6.3,3.7,13.8,3.7
			c7.5,0,13.8-3.7,13.8-3.7v-11"/>
		<polyline fill="none" stroke="#020202" stroke-width="3" stroke-miterlimit="10" points="466.4,573.2 466.4,584.5 472.2,584.5 
			478.1,584.5 478.1,573.2 		"/>
		<line fill="none" stroke="#020202" stroke-width="3" stroke-miterlimit="10" x1="472.2" y1="590.3" x2="472.2" y2="584.5"/>
	</g>
	<g>
		<g>
			<ellipse fill="none" stroke="#020202" stroke-width="3" stroke-miterlimit="10" cx="108.2" cy="528.3" rx="13.8" ry="4.2"/>
			<path fill="none" stroke="#020202" stroke-width="3" stroke-miterlimit="10" d="M94.6,529.7v9.6c0,0,6.3,3.7,13.8,3.7
				c7.5,0,13.8-3.7,13.8-3.7v-11"/>
		</g>
		<line fill="none" stroke="#020202" stroke-width="3" stroke-miterlimit="10" x1="110.5" y1="524.3" x2="114.5" y2="517.7"/>
		<polyline fill="none" stroke="#020202" stroke-width="3" stroke-miterlimit="10" points="117.5,541.4 128.5,541.4 128.5,553.4 		
			"/>
	</g>
	<g>
		<g>
			<ellipse fill="none" stroke="#020202" stroke-width="3" stroke-miterlimit="10" cx="149.6" cy="528.3" rx="13.8" ry="4.2"/>
			<path fill="none" stroke="#020202" stroke-width="3" stroke-miterlimit="10" d="M136,529.7v9.6c0,0,6.3,3.7,13.8,3.7
				c7.5,0,13.8-3.7,13.8-3.7v-11"/>
		</g>
		<line fill="none" stroke="#020202" stroke-width="3" stroke-miterlimit="10" x1="151.9" y1="524.3" x2="155.2" y2="517.7"/>
		<polyline fill="none" stroke="#020202" stroke-width="3" stroke-miterlimit="10" points="159,541.4 170,541.4 170,553.4 		"/>
	</g>
	<g>
		<g>
			<ellipse fill="none" stroke="#020202" stroke-width="3" stroke-miterlimit="10" cx="193.6" cy="528.3" rx="13.8" ry="4.2"/>
			<path fill="none" stroke="#020202" stroke-width="3" stroke-miterlimit="10" d="M179.8,529.7v9.6c0,0,6.3,3.7,13.8,3.7
				c7.3,0,13.8-3.7,13.8-3.7v-11"/>
		</g>
		<line fill="none" stroke="#020202" stroke-width="3" stroke-miterlimit="10" x1="196" y1="524.3" x2="197.8" y2="517.7"/>
		<polyline fill="none" stroke="#020202" stroke-width="3" stroke-miterlimit="10" points="203,541.4 214,541.4 214,553.4 		"/>
	</g>
	<g>
		<g>
			<ellipse fill="none" stroke="#020202" stroke-width="3" stroke-miterlimit="10" cx="235.1" cy="528.3" rx="13.8" ry="4.2"/>
			<path fill="none" stroke="#020202" stroke-width="3" stroke-miterlimit="10" d="M221.5,529.7v9.6c0,0,6.3,3.7,13.8,3.7
				c7.3,0,13.8-3.7,13.8-3.7v-11"/>
		</g>
		<line fill="none" stroke="#020202" stroke-width="3" stroke-miterlimit="10" x1="235.1" y1="524.3" x2="237.4" y2="517.7"/>
		<polyline fill="none" stroke="#020202" stroke-width="3" stroke-miterlimit="10" points="244.4,541.4 255.4,541.4 255.4,553.4 		
			"/>
	</g>
	<g>
		<g>
			<ellipse fill="none" stroke="#020202" stroke-width="3" stroke-miterlimit="10" cx="276.7" cy="528.3" rx="13.8" ry="4.2"/>
			<path fill="none" stroke="#020202" stroke-width="3" stroke-miterlimit="10" d="M262.9,529.7v9.6c0,0,6.3,3.7,13.8,3.7
				c7.3,0,13.8-3.7,13.8-3.7v-11"/>
		</g>
		<line fill="none" stroke="#020202" stroke-width="3" stroke-miterlimit="10" x1="276.7" y1="524.3" x2="276.7" y2="517.7"/>
		<polyline fill="none" stroke="#020202" stroke-width="3" stroke-miterlimit="10" points="285.9,541.4 296.9,541.4 296.9,553.4 		
			"/>
	</g>
	<g>
		<g>
			<ellipse fill="none" stroke="#020202" stroke-width="3" stroke-miterlimit="10" cx="320.5" cy="528.3" rx="13.8" ry="4.2"/>
			<path fill="none" stroke="#020202" stroke-width="3" stroke-miterlimit="10" d="M306.9,529.7v9.6c0,0,6.3,3.7,13.8,3.7
				c7.5,0,13.8-3.7,13.8-3.7v-11"/>
		</g>
		<line fill="none" stroke="#020202" stroke-width="3" stroke-miterlimit="10" x1="320.5" y1="524.3" x2="320.5" y2="517.7"/>
	</g>
	<g>
		<g>
			<ellipse fill="none" stroke="#020202" stroke-width="3" stroke-miterlimit="10" cx="362.4" cy="528.3" rx="13.8" ry="4.2"/>
			<path fill="none" stroke="#020202" stroke-width="3" stroke-miterlimit="10" d="M348.6,529.7v9.6c0,0,6.3,3.7,13.8,3.7
				c7.3,0,13.8-3.7,13.8-3.7v-11"/>
		</g>
		<line fill="none" stroke="#020202" stroke-width="3" stroke-miterlimit="10" x1="362.2" y1="524.3" x2="359.8" y2="517.7"/>
		<polyline fill="none" stroke="#020202" stroke-width="3" stroke-miterlimit="10" points="352.1,541.4 341.1,541.4 341.1,553.4 		
			"/>
	</g>
	<g>
		<g>
			<ellipse fill="none" stroke="#020202" stroke-width="3" stroke-miterlimit="10" cx="403.9" cy="528.3" rx="13.8" ry="4.2"/>
			<path fill="none" stroke="#020202" stroke-width="3" stroke-miterlimit="10" d="M390.1,529.7v9.6c0,0,6.3,3.7,13.8,3.7
				c7.3,0,13.8-3.7,13.8-3.7v-11"/>
		</g>
		<line fill="none" stroke="#020202" stroke-width="3" stroke-miterlimit="10" x1="403.9" y1="524.3" x2="401.1" y2="517.7"/>
		<polyline fill="none" stroke="#020202" stroke-width="3" stroke-miterlimit="10" points="394.5,541.4 384.4,541.4 384.4,554.7 		
			"/>
	</g>
	<g>
		<g>
			<ellipse fill="none" stroke="#020202" stroke-width="3" stroke-miterlimit="10" cx="445.3" cy="528.3" rx="13.8" ry="4.2"/>
			<path fill="none" stroke="#020202" stroke-width="3" stroke-miterlimit="10" d="M431.5,529.7v9.6c0,0,6.3,3.7,13.8,3.7
				c7.5,0,13.8-3.7,13.8-3.7v-11"/>
		</g>
		<line fill="none" stroke="#020202" stroke-width="3" stroke-miterlimit="10" x1="445.3" y1="524.3" x2="443" y2="517.7"/>
		<polyline fill="none" stroke="#020202" stroke-width="3" stroke-miterlimit="10" points="435.2,541.4 424.2,541.4 424.2,554.7 		
			"/>
	</g>
	<g>
		<g>
			<ellipse fill="none" stroke="#020202" stroke-width="3" stroke-miterlimit="10" cx="489.3" cy="528.3" rx="13.8" ry="4.2"/>
			<path fill="none" stroke="#020202" stroke-width="3" stroke-miterlimit="10" d="M475.5,529.7v9.6c0,0,6.3,3.7,13.8,3.7
				c7.5,0,13.8-3.7,13.8-3.7v-11"/>
		</g>
		<line fill="none" stroke="#020202" stroke-width="3" stroke-miterlimit="10" x1="484.6" y1="524.3" x2="480" y2="517.7"/>
		<line fill="none" stroke="#020202" stroke-width="3" stroke-miterlimit="10" x1="503.1" y1="539.3" x2="509.7" y2="552.4"/>
		<polyline fill="none" stroke="#020202" stroke-width="3" stroke-miterlimit="10" points="480.7,541.4 469.7,541.4 469.7,553.4 		
			"/>
	</g>
	<g>
		<g>
			<ellipse fill="none" stroke="#020202" stroke-width="3" stroke-miterlimit="10" cx="98.8" cy="496.2" rx="13.8" ry="4.2"/>
			<path fill="none" stroke="#020202" stroke-width="3" stroke-miterlimit="10" d="M85.2,497.6v9.6c0,0,6.3,3.7,13.8,3.7
				c7.5,0,13.8-3.7,13.8-3.7v-11"/>
		</g>
		<line fill="none" stroke="#020202" stroke-width="3" stroke-miterlimit="10" x1="101.1" y1="492" x2="105.8" y2="485.7"/>
	</g>
	<g>
		<g>
			<ellipse fill="none" stroke="#020202" stroke-width="3" stroke-miterlimit="10" cx="138.1" cy="496.2" rx="13.8" ry="4.2"/>
			<path fill="none" stroke="#020202" stroke-width="3" stroke-miterlimit="10" d="M124.3,497.6v9.6c0,0,6.3,3.7,13.8,3.7
				c7.5,0,13.8-3.7,13.8-3.7v-11"/>
		</g>
		<line fill="none" stroke="#020202" stroke-width="3" stroke-miterlimit="10" x1="140.5" y1="492" x2="145.2" y2="485.7"/>
	</g>
	<g>
		<g>
			<ellipse fill="none" stroke="#020202" stroke-width="3" stroke-miterlimit="10" cx="177.5" cy="496.2" rx="13.8" ry="4.2"/>
			<path fill="none" stroke="#020202" stroke-width="3" stroke-miterlimit="10" d="M163.7,497.6v9.6c0,0,6.3,3.7,13.8,3.7
				c7.3,0,13.8-3.7,13.8-3.7v-11"/>
		</g>
		<line fill="none" stroke="#020202" stroke-width="3" stroke-miterlimit="10" x1="179.6" y1="492" x2="184" y2="485.4"/>
	</g>
	<g>
		<g>
			<ellipse fill="none" stroke="#020202" stroke-width="3" stroke-miterlimit="10" cx="216.6" cy="496.2" rx="13.8" ry="4.2"/>
			<path fill="none" stroke="#020202" stroke-width="3" stroke-miterlimit="10" d="M203,497.6v9.6c0,0,6.3,3.7,13.8,3.7
				c7.3,0,13.8-3.7,13.8-3.7v-11"/>
		</g>
		<line fill="none" stroke="#020202" stroke-width="3" stroke-miterlimit="10" x1="216.6" y1="492" x2="220.1" y2="485.4"/>
	</g>
	<g>
		<g>
			<ellipse fill="none" stroke="#020202" stroke-width="3" stroke-miterlimit="10" cx="255.9" cy="496.2" rx="13.8" ry="4.2"/>
			<path fill="none" stroke="#020202" stroke-width="3" stroke-miterlimit="10" d="M242.1,497.6v9.6c0,0,6.3,3.7,13.8,3.7
				c7.3,0,13.8-3.7,13.8-3.7v-11"/>
		</g>
		<line fill="none" stroke="#020202" stroke-width="3" stroke-miterlimit="10" x1="255.9" y1="492" x2="255.9" y2="485.7"/>
	</g>
	<g>
		<g>
			<ellipse fill="none" stroke="#020202" stroke-width="3" stroke-miterlimit="10" cx="295.2" cy="496.2" rx="13.8" ry="4.2"/>
			<path fill="none" stroke="#020202" stroke-width="3" stroke-miterlimit="10" d="M281.4,497.6v9.6c0,0,6.3,3.7,13.8,3.7
				s13.8-3.7,13.8-3.7v-11"/>
		</g>
		<line fill="none" stroke="#020202" stroke-width="3" stroke-miterlimit="10" x1="295.2" y1="492" x2="295.2" y2="485.4"/>
	</g>
	<g>
		<g>
			<ellipse fill="none" stroke="#020202" stroke-width="3" stroke-miterlimit="10" cx="334.6" cy="496.2" rx="13.8" ry="4.2"/>
			<path fill="none" stroke="#020202" stroke-width="3" stroke-miterlimit="10" d="M320.7,497.6v9.6c0,0,6.3,3.7,13.8,3.7
				c7.3,0,13.8-3.7,13.8-3.7v-11"/>
		</g>
		<line fill="none" stroke="#020202" stroke-width="3" stroke-miterlimit="10" x1="334.3" y1="492" x2="334.3" y2="485.4"/>
	</g>
	<g>
		<g>
			<ellipse fill="none" stroke="#020202" stroke-width="3" stroke-miterlimit="10" cx="373.7" cy="496.2" rx="13.8" ry="4.2"/>
			<path fill="none" stroke="#020202" stroke-width="3" stroke-miterlimit="10" d="M360.1,497.6v9.6c0,0,6.3,3.7,13.8,3.7
				c7.3,0,13.8-3.7,13.8-3.7v-11"/>
		</g>
		<line fill="none" stroke="#020202" stroke-width="3" stroke-miterlimit="10" x1="373.7" y1="492" x2="369.7" y2="485.4"/>
	</g>
	<g>
		<g>
			<ellipse fill="none" stroke="#020202" stroke-width="3" stroke-miterlimit="10" cx="413" cy="496.2" rx="13.8" ry="4.2"/>
			<path fill="none" stroke="#020202" stroke-width="3" stroke-miterlimit="10" d="M399.2,497.6v9.6c0,0,6.3,3.7,13.8,3.7
				c7.3,0,13.8-3.7,13.8-3.7v-11"/>
		</g>
		<line fill="none" stroke="#020202" stroke-width="3" stroke-miterlimit="10" x1="413" y1="492" x2="409.7" y2="485.4"/>
	</g>
	<g>
		<g>
			<ellipse fill="none" stroke="#020202" stroke-width="3" stroke-miterlimit="10" cx="452.3" cy="496.2" rx="13.8" ry="4.2"/>
			<path fill="none" stroke="#020202" stroke-width="3" stroke-miterlimit="10" d="M438.5,497.6v9.6c0,0,6.3,3.7,13.8,3.7
				c7.3,0,13.8-3.7,13.8-3.7v-11"/>
		</g>
		<line fill="none" stroke="#020202" stroke-width="3" stroke-miterlimit="10" x1="452.1" y1="492" x2="449.8" y2="485.4"/>
	</g>
	<g>
		<g>
			<ellipse fill="none" stroke="#020202" stroke-width="3" stroke-miterlimit="10" cx="491.7" cy="496.2" rx="13.8" ry="4.2"/>
			<path fill="none" stroke="#020202" stroke-width="3" stroke-miterlimit="10" d="M478.1,497.6v9.6c0,0,6.3,3.7,13.8,3.7
				c7.5,0,13.8-3.7,13.8-3.7v-11"/>
		</g>
		<line fill="none" stroke="#020202" stroke-width="3" stroke-miterlimit="10" x1="491.7" y1="492" x2="487" y2="485.7"/>
	</g>
	<g>
		<ellipse fill="none" stroke="#020202" stroke-width="3" stroke-miterlimit="10" cx="513.4" cy="557.1" rx="18.3" ry="4.7"/>
		<path fill="none" stroke="#020202" stroke-width="3" stroke-miterlimit="10" d="M495.2,558.7v10.5c0,0,8.4,4.2,18.3,4.2
			c9.8,0,18.3-4.2,18.3-4.2v-12.2"/>
	</g>
	<g>
		<ellipse fill="none" stroke="#020202" stroke-width="3" stroke-miterlimit="10" cx="76.3" cy="557.1" rx="18.3" ry="4.7"/>
		<path fill="none" stroke="#020202" stroke-width="3" stroke-miterlimit="10" d="M58.1,558.7v10.5c0,0,8.4,4.2,18.3,4.2
			s18.3-4.2,18.3-4.2v-12.2"/>
	</g>
	<g>
		<line fill="none" stroke="#020202" stroke-width="3" stroke-miterlimit="10" x1="112.6" y1="507.2" x2="124.3" y2="507.2"/>
		<line fill="none" stroke="#020202" stroke-width="3" stroke-miterlimit="10" x1="151.9" y1="507.2" x2="163.7" y2="507.2"/>
		<line fill="none" stroke="#020202" stroke-width="3" stroke-miterlimit="10" x1="191.3" y1="507.2" x2="203" y2="507.2"/>
		<line fill="none" stroke="#020202" stroke-width="3" stroke-miterlimit="10" x1="230.6" y1="507.2" x2="242.3" y2="507.2"/>
		<line fill="none" stroke="#020202" stroke-width="3" stroke-miterlimit="10" x1="269.7" y1="507.2" x2="281.4" y2="507.2"/>
		<line fill="none" stroke="#020202" stroke-width="3" stroke-miterlimit="10" x1="309" y1="507.2" x2="320.7" y2="507.2"/>
		<line fill="none" stroke="#020202" stroke-width="3" stroke-miterlimit="10" x1="348.4" y1="507.2" x2="360.1" y2="507.2"/>
		<line fill="none" stroke="#020202" stroke-width="3" stroke-miterlimit="10" x1="387.7" y1="507.2" x2="399.4" y2="507.2"/>
		<line fill="none" stroke="#020202" stroke-width="3" stroke-miterlimit="10" x1="427" y1="507.2" x2="438.7" y2="507.2"/>
		<line fill="none" stroke="#020202" stroke-width="3" stroke-miterlimit="10" x1="466.1" y1="507.2" x2="478.1" y2="507.2"/>
	</g>
	<g>
		<ellipse fill="none" stroke="#020202" stroke-width="3" stroke-miterlimit="10" cx="124.3" cy="466.2" rx="13.8" ry="4.2"/>
		<path fill="none" stroke="#020202" stroke-width="3" stroke-miterlimit="10" d="M110.7,467.6v9.6c0,0,6.3,3.7,13.8,3.7
			c7.5,0,13.8-3.7,13.8-3.7v-11"/>
	</g>
	<g>
		<ellipse fill="none" stroke="#020202" stroke-width="3" stroke-miterlimit="10" cx="163.9" cy="466.2" rx="13.8" ry="4.2"/>
		<path fill="none" stroke="#020202" stroke-width="3" stroke-miterlimit="10" d="M150.1,467.6v9.6c0,0,6.3,3.7,13.8,3.7
			c7.3,0,13.8-3.7,13.8-3.7v-11"/>
	</g>
	<g>
		<ellipse fill="none" stroke="#020202" stroke-width="3" stroke-miterlimit="10" cx="203.2" cy="466.2" rx="13.8" ry="4.2"/>
		<path fill="none" stroke="#020202" stroke-width="3" stroke-miterlimit="10" d="M189.6,467.6v9.6c0,0,6.3,3.7,13.8,3.7
			c7.3,0,13.8-3.7,13.8-3.7v-11"/>
	</g>
	<g>
		<ellipse fill="none" stroke="#020202" stroke-width="3" stroke-miterlimit="10" cx="242.8" cy="466.2" rx="13.8" ry="4.2"/>
		<path fill="none" stroke="#020202" stroke-width="3" stroke-miterlimit="10" d="M229,467.6v9.6c0,0,6.3,3.7,13.8,3.7
			c7.3,0,13.8-3.7,13.8-3.7v-11"/>
	</g>
	<g>
		<ellipse fill="none" stroke="#020202" stroke-width="3" stroke-miterlimit="10" cx="282.4" cy="466.2" rx="13.8" ry="4.2"/>
		<path fill="none" stroke="#020202" stroke-width="3" stroke-miterlimit="10" d="M268.5,467.6v9.6c0,0,6.3,3.7,13.8,3.7
			c7.3,0,13.8-3.7,13.8-3.7v-11"/>
	</g>
	<g>
		<ellipse fill="none" stroke="#020202" stroke-width="3" stroke-miterlimit="10" cx="321.7" cy="466.2" rx="13.8" ry="4.2"/>
		<path fill="none" stroke="#020202" stroke-width="3" stroke-miterlimit="10" d="M308.1,467.6v9.6c0,0,6.3,3.7,13.8,3.7
			c7.5,0,13.8-3.7,13.8-3.7v-11"/>
	</g>
	<g>
		<ellipse fill="none" stroke="#020202" stroke-width="3" stroke-miterlimit="10" cx="361.3" cy="466.2" rx="13.8" ry="4.2"/>
		<path fill="none" stroke="#020202" stroke-width="3" stroke-miterlimit="10" d="M347.4,467.6v9.6c0,0,6.3,3.7,13.8,3.7
			c7.3,0,13.8-3.7,13.8-3.7v-11"/>
	</g>
	<g>
		<ellipse fill="none" stroke="#020202" stroke-width="3" stroke-miterlimit="10" cx="400.6" cy="466.2" rx="13.8" ry="4.2"/>
		<path fill="none" stroke="#020202" stroke-width="3" stroke-miterlimit="10" d="M387,467.6v9.6c0,0,6.3,3.7,13.8,3.7
			c7.5,0,13.8-3.7,13.8-3.7v-11"/>
	</g>
	<g>
		<ellipse fill="none" stroke="#020202" stroke-width="3" stroke-miterlimit="10" cx="440.2" cy="466.2" rx="13.8" ry="4.2"/>
		<path fill="none" stroke="#020202" stroke-width="3" stroke-miterlimit="10" d="M426.3,467.6v9.6c0,0,6.3,3.7,13.8,3.7
			c7.5,0,13.8-3.7,13.8-3.7v-11"/>
	</g>
	<g>
		<ellipse fill="none" stroke="#020202" stroke-width="3" stroke-miterlimit="10" cx="479.7" cy="466.2" rx="13.8" ry="4.2"/>
		<path fill="none" stroke="#020202" stroke-width="3" stroke-miterlimit="10" d="M465.9,467.6v9.6c0,0,6.3,3.7,13.8,3.7
			c7.3,0,13.8-3.7,13.8-3.7v-11"/>
	</g>
	<path fill="none" stroke="#020202" stroke-width="3" stroke-miterlimit="10" d="M447.9,604.4h-295c-3.5,0-6.3-2.8-6.3-6.6l0,0
		c0-3.5,2.8-6.6,6.3-6.6h295c3.5,0,6.6,2.8,6.6,6.6l0,0C454.2,601.6,451.4,604.4,447.9,604.4z"/>
	<line fill="none" stroke="#020202" stroke-width="3" stroke-miterlimit="10" x1="94.6" y1="539.3" x2="84.3" y2="552.4"/>
</g>
<line fill="none" stroke="#020202" stroke-width="3" stroke-miterlimit="10" x1="320.5" y1="543" x2="320.5" y2="553.4"/>
</svg>
